<?xml version="1.0" encoding="utf-8"?>
<!-- Svg Vector Icons : http://www.onlinewebfonts.com/icon -->
<!DOCTYPE svg PUBLIC "-//W3C//DTD SVG 1.1//EN" "http://www.w3.org/Graphics/SVG/1.1/DTD/svg11.dtd">
<svg version="1.1" xmlns="http://www.w3.org/2000/svg" xmlns:xlink="http://www.w3.org/1999/xlink" x="0px" y="0px" viewBox="0 0 1000 1000" enable-background="new 0 0 1000 1000" xml:space="preserve">
<metadata> Svg Vector Icons : http://www.onlinewebfonts.com/icon </metadata>
<g><g transform="translate(0.000000,511.000000) scale(0.100000,-0.100000)"><path d="M9695.3,3095.6c-91.9-48.9-381.3-232.7-645.2-408.6c-537.7-357.8-612-400.8-893.5-525.9c-486.8-217-750.8-281.5-1843.7-451.7C4183.6,1377,3499.3,1205,2842.3,835.4C2042.7,385.7,1503-189.1,838.3-1291.8c-179.9-299.1-451.7-836.8-553.3-1094.9c-86-215.1-197.5-567-183.8-578.7c3.9-3.9,72.3,74.3,154.5,174c410.6,496.6,1429.2,1523.1,1480.1,1491.8c19.6-11.7,5.9-82.1-46.9-250.3l-35.2-111.4l93.8-156.4c707.8-1171.2,2144.8-1368.6,3243.7-447.7c367.6,307,619.8,686.3,782.1,1171.2c129,383.2,154.4,588.5,156.4,1298.3l1.9,623.7l938.5,228.8c516.2,127.1,958,230.7,981.5,230.7c101.7,3.9,82.1-68.4-189.7-707.8c-860.3-2013.8-917-2154.6-895.5-2180c45-54.7,103.6,39.1,346.1,563.1C7814.4,475.7,8256.3,1214.7,8866.3,1901c86,95.8,199.4,228.8,252.2,297.2c54.7,68.4,213.1,258.1,351.9,424.3c371.5,434.1,465.3,563.1,418.4,563.1C9873.2,3185.6,9787.2,3144.5,9695.3,3095.6z M4819,299.7c117.3-72.3,211.2-209.2,264-383.2c54.7-179.9,45-455.6-21.5-631.5c-80.2-205.3-295.2-381.3-469.2-381.3c-219,0-439.9,228.8-508.3,526c-33.2,144.7-15.6,412.5,37.1,553.3c50.8,134.9,195.5,301.1,305,351.9C4541.4,387.7,4699.8,374,4819,299.7z"/></g></g>
</svg>