<?xml version="1.0" encoding="utf-8"?>
<!-- Svg Vector Icons : http://www.onlinewebfonts.com/icon -->
<!DOCTYPE svg PUBLIC "-//W3C//DTD SVG 1.1//EN" "http://www.w3.org/Graphics/SVG/1.1/DTD/svg11.dtd">
<svg version="1.1" xmlns="http://www.w3.org/2000/svg" xmlns:xlink="http://www.w3.org/1999/xlink" x="0px" y="0px" viewBox="0 0 1000 1000" enable-background="new 0 0 1000 1000" xml:space="preserve">
<metadata> Svg Vector Icons : http://www.onlinewebfonts.com/icon </metadata>
<g><g><path d="M941.3,125.5C934.3,60.8,879.9,10,813.5,10H186.6C120.1,10,65.8,60.7,58.8,125.5c-15.5,23.5-24.7,51.6-24.7,81.8v633.6c0,82.3,66.8,149.1,149.1,149.1h633.6c82.3,0,149.1-66.7,149.1-149.1V207.3C965.9,177,956.8,149,941.3,125.5z M490.7,58.2V858H186.6c-50.7,0-91.9-41.2-91.9-92V139.2c0-28.3,13.1-53.3,33.3-70.1c15.9-13.4,36.3-21.8,58.7-21.8h304.1V58.2L490.7,58.2z M905.4,766.1c0,50.7-41.2,91.9-91.9,91.9H509.3V58.2V47.3h68v10.9v86.9l36.3-30.4l36.2,30.4V58.2V47.3h163.7c22.5,0,42.7,8.4,58.7,21.8c20.1,16.8,33.2,41.9,33.2,70.1L905.4,766.1L905.4,766.1z M428.3,319.9H299.2V301h129.1V319.9z M428.3,392H299.2v-19h129.1V392z M170.1,446h258.2v19H170.1V446z M170.1,518.2h258.2v19H170.1V518.2z M170.1,591.1h258.2v19H170.1V591.1z M181.2,397.6h11l6.7-20.8h38.8l7,20.8h11.3h11.4l-36.2-102.4h-12.4h-12.4l-36.3,102.4H181.2z M218.4,318.1l13.6,41.2h-27.2L218.4,318.1z M781.5,434.2c17.4,11.7,17.4,30.8,0,42.6l-136.9,92.2c-17.4,11.6-31.6,4.1-31.6-16.8V358.8c0-20.9,14.2-28.5,31.6-16.8L781.5,434.2z"/></g><g></g><g></g><g></g><g></g><g></g><g></g><g></g><g></g><g></g><g></g><g></g><g></g><g></g><g></g><g></g></g>
</svg>