<?xml version="1.0" encoding="utf-8"?>
<!-- Svg Vector Icons : http://www.onlinewebfonts.com/icon -->
<!DOCTYPE svg PUBLIC "-//W3C//DTD SVG 1.1//EN" "http://www.w3.org/Graphics/SVG/1.1/DTD/svg11.dtd">
<svg version="1.1" xmlns="http://www.w3.org/2000/svg" xmlns:xlink="http://www.w3.org/1999/xlink" x="0px" y="0px" viewBox="0 0 1000 1000" enable-background="new 0 0 1000 1000" xml:space="preserve">
<metadata> Svg Vector Icons : http://www.onlinewebfonts.com/icon </metadata>
<g><g transform="translate(0.000000,511.000000) scale(0.100000,-0.100000)"><path d="M4887.3,4983.6c-29.4-12.2-66.1-51.4-80.8-83.3c-19.6-44.1-27-529.2-27-1626.8V1707.9l-1866.9-7.4c-1859.5-7.3-1869.3-9.8-2033.5-63.7c-271.9-90.7-524.3-308.7-651.7-556.2C95.1,818.6,100,897,100-1540.7c0-2423-2.5-2391.2,125-2638.6c73.5-142.1,298.9-374.8,450.8-460.6c225.4-129.8,350.3-147,1033.9-147c749.7,0,803.6,12.2,1046.1,254.8c193.5,191.1,279.3,323.4,580.7,899.1c338.1,646.8,492.4,862.4,666.4,926.1c44.1,17.1,401.8,26.9,992.2,26.9c1060.9,0,1019.2,7.4,1205.4-225.4c61.3-75.9,220.5-343,350.3-595.3c303.8-575.7,377.3-700.7,524.3-882c149.4-183.8,320.9-313.6,477.7-365.1c166.6-53.9,1286.2-56.3,1482.2-4.9c320.9,85.8,590.4,301.3,730.1,588c46.6,95.5,98,232.8,110.2,306.3c34.3,191.1,31.8,4466.3-2.4,4637.8c-98,472.8-497.4,840.3-977.5,901.6c-102.9,12.3-975.1,24.5-1952.6,24.5H5171.5V3298v1594.9l-61.3,58.8C5049,5015.4,4973,5027.7,4887.3,4983.6z M9025.3,1249.8c154.3-51.5,318.5-203.3,401.8-372.4l68.6-139.7V-1553v-2290.7l-66.2-127.4c-83.3-156.8-210.7-281.7-360.2-355.2c-105.3-53.9-147-56.3-712.9-63.7c-369.9-4.9-632.1,2.4-686,17.1c-193.6,58.8-382.2,308.7-739.9,997.1c-365,693.4-507.1,889.4-749.7,1007l-139.6,68.6H4987.7c-1021.7,0-1055.9-2.4-1163.7-51.4c-272-127.4-455.7-372.4-855-1131.9c-137.2-262.2-279.3-521.8-318.5-578.2c-93.1-132.3-276.9-303.8-352.8-320.9c-31.9-9.8-325.9-12.2-656.6-7.3c-597.8,7.3-597.8,7.3-737.4,75.9c-149.4,73.5-257.3,181.3-343,343l-56.3,102.9V-1553V762.3l66.2,125c80.8,151.9,254.8,311.1,394.4,362.6c88.2,29.4,629.7,36.8,4025.3,36.8C8498.6,1289,8922.4,1284.1,9025.3,1249.8z"/><path d="M2192.3,370.3c-695.8-151.9-1073.1-923.7-771.7-1572.9c196-416.5,619.9-666.4,1085.4-639.4c338.1,19.6,595.3,154.3,818.3,428.7c169,208.3,218,362.6,218,693.3c0,274.4-2.5,286.7-88.2,467.9c-161.7,335.6-460.6,568.4-815.8,632.1C2456.9,414.4,2381,411.9,2192.3,370.3z M2763.2-73.2c534.1-259.7,534.1-1029,0-1313.2c-139.7-75.9-497.4-80.8-629.6-9.8c-171.5,93.1-267,188.7-345.5,347.9C1476.9-418.6,2131.1,235.5,2763.2-73.2z"/><path d="M7511.2,328.6c-98-56.3-107.8-95.5-107.8-399.3c0-306.3,9.8-345.4,112.7-399.3c83.3-44.1,127.4-34.3,205.8,41.7c71.1,71,71.1,75.9,71.1,357.7s0,286.7-71.1,357.7C7646,362.9,7589.6,372.7,7511.2,328.6z"/><path d="M6617-592.6c-90.7-90.7-95.6-181.3-12.2-262.2c56.3-58.8,73.5-61.3,362.6-61.3c284.2,0,306.3,2.5,355.3,56.3c71.1,76,71.1,213.2,2.5,276.9c-44.1,39.2-98,49-343,53.9l-291.6,9.8L6617-592.6z"/><path d="M7895.9-563.2c-31.8-22.1-66.2-66.2-78.4-98c-26.9-71.1,12.2-198.5,73.5-230.3c24.5-14.7,178.8-24.5,343-24.5c281.7,0,298.9,2.5,355.3,61.3c80.8,80.8,78.4,171.5-9.8,259.7c-71,71-75.9,71-350.3,71C8013.5-524,7937.5-533.8,7895.9-563.2z"/><path d="M7462.2-1026.2c-58.8-56.3-61.3-73.5-61.3-355.3s2.4-298.9,61.3-355.2c36.8-39.2,88.2-61.3,134.8-61.3c46.6,0,98,22.1,134.7,61.3c58.8,56.3,61.3,73.5,61.3,355.2s-2.4,298.9-61.3,355.3C7695-987,7643.5-965,7597-965C7550.4-965,7499-987,7462.2-1026.2z"/></g></g>
</svg>