<?xml version="1.0" encoding="utf-8"?>
<!-- Svg Vector Icons : http://www.onlinewebfonts.com/icon -->
<!DOCTYPE svg PUBLIC "-//W3C//DTD SVG 1.1//EN" "http://www.w3.org/Graphics/SVG/1.1/DTD/svg11.dtd">
<svg version="1.1" xmlns="http://www.w3.org/2000/svg" xmlns:xlink="http://www.w3.org/1999/xlink" x="0px" y="0px" viewBox="0 0 1000 1000" enable-background="new 0 0 1000 1000" xml:space="preserve">
<metadata> Svg Vector Icons : http://www.onlinewebfonts.com/icon </metadata>
<g><g transform="translate(0.000000,511.000000) scale(0.100000,-0.100000)"><path d="M4802.6,3255.2c-28.7-3.8-266.2-116.8-526.6-248.9C739.3,1206.3,237.6,945.9,180.1,884.6c-32.5-34.5-67-93.8-72.8-132.1c-34.5-181.9,38.3-252.8,517-495.9l383-195.3l5.7-430.8l5.8-430.8l-233.6-936.4c-185.7-741.1-229.8-945.9-216.4-986.2c9.6-26.8,59.4-76.6,109.1-109.1c145.5-95.7,283.4-132.1,492.1-132.1s346.6,36.4,492.1,132.1c49.8,32.5,99.6,82.3,109.1,109.1c13.4,40.2-30.6,243.2-214.5,982.3l-233.6,930.6v356.2v354.2L1704.3-295l383-195.3l5.7-605.1c5.7-576.4,7.7-608.9,49.8-706.6c243.2-578.3,1062.7-1034,2167.6-1204.5c314-47.9,1066.6-47.9,1388.3,1.9c1087.6,166.6,1916.8,626.1,2158,1198.7c42.1,101.5,44.1,128.3,49.8,710.4l5.8,605.1l913.4,463.4c942.1,478.7,1037.9,538.1,1068.5,660.6c19.2,82.3-9.6,181.9-74.7,250.8c-46,49.8-631.9,356.2-2272.9,1191C6330.6,2696,5310,3214.9,5277.5,3228.3C5220,3255.2,4902.1,3272.4,4802.6,3255.2z M7335.9,1842C8530.8,1233.1,9520.8,725.6,9532.2,714.2c19.2-17.2-505.5-293-2163.8-1141.3L5181.7-1545.4h-181.9h-181.9l-1585.5,810C2361.1-289.2,1650.7,78.4,1652.6,82.2c3.8,1.9,675.9,134,1493.6,293l1485.9,287.2l93.8-51.7c82.3-46,111.1-51.7,273.8-51.7c201.1,0,285.3,30.6,388.7,139.8c201.1,210.6-88.1,499.8-457.6,455.7c-128.3-15.3-222.1-55.5-310.2-134l-70.8-63.2L2893.5,637.6C1982,463.3,1221.8,319.7,1202.7,319.7c-36.4,0-760.2,365.7-760.2,383c1.9,5.7,653,340.8,1451.5,746.8c796.6,405.9,1794.2,913.4,2215.5,1125.9l764,390.6l145.5-7.7l143.6-7.7L7335.9,1842z M3577.1-1250.5c1290.6-656.8,1284.9-654.9,1552.9-612.8c111.1,19.2,275.8,95.7,1292.5,612.8C7062.1-923,7588.7-656.9,7594.4-656.9c5.7,0,9.6-210.6,9.6-469.1c0-538.1-9.6-587.9-162.8-779.3c-226-281.5-762.1-566.8-1340.4-712.3c-350.4-88.1-601.3-114.9-1101-114.9c-501.7,0-744.9,24.9-1101,114.9c-578.3,145.5-1114.4,430.8-1340.4,712.3c-153.2,191.5-162.8,241.3-162.8,779.3c0,258.5,3.8,469.1,9.6,469.1S2937.5-923,3577.1-1250.5z M1311.8-2029.8c72.8-293,136-541.9,139.8-555.3c11.5-30.6-166.6-82.3-281.5-82.3s-293,51.7-281.5,82.3c3.8,13.4,67,262.3,139.8,555.3c72.8,291.1,136,530.4,141.7,530.4S1239-1738.8,1311.8-2029.8z"/></g></g>
</svg>