<?xml version="1.0" encoding="UTF-8" standalone="no"?>
<svg
   xmlns:dc="http://purl.org/dc/elements/1.1/"
   xmlns:cc="http://creativecommons.org/ns#"
   xmlns:rdf="http://www.w3.org/1999/02/22-rdf-syntax-ns#"
   xmlns:svg="http://www.w3.org/2000/svg"
   xmlns="http://www.w3.org/2000/svg"
   xmlns:sodipodi="http://sodipodi.sourceforge.net/DTD/sodipodi-0.dtd"
   xmlns:inkscape="http://www.inkscape.org/namespaces/inkscape"
   width="1000"
   height="713.80402"
   viewBox="0 0 1000 713.80402"
   id="svg2"
   version="1.1"
   inkscape:version="0.91 r13725"
   sodipodi:docname="Discord Inverted Icon.svg">
  <metadata
     id="metadata14">
    <rdf:RDF>
      <cc:Work
         rdf:about="">
        <dc:format>image/svg+xml</dc:format>
        <dc:type
           rdf:resource="http://purl.org/dc/dcmitype/StillImage" />
        <dc:title></dc:title>
      </cc:Work>
    </rdf:RDF>
  </metadata>
  <defs
     id="defs12" />
  <sodipodi:namedview
     pagecolor="#ffffff"
     bordercolor="#666666"
     borderopacity="1"
     objecttolerance="10"
     gridtolerance="10"
     guidetolerance="10"
     inkscape:pageopacity="0"
     inkscape:pageshadow="2"
     inkscape:window-width="1366"
     inkscape:window-height="705"
     id="namedview10"
     showgrid="false"
     inkscape:zoom="0.43741403"
     inkscape:cx="279.29273"
     inkscape:cy="458.68978"
     inkscape:window-x="-8"
     inkscape:window-y="-8"
     inkscape:window-maximized="1"
     inkscape:current-layer="svg2" />
  <path
     style="fill:#7289da"
     d="M 361.9857,0.00138389 C 348.73055,0.05478389 239.07459,3.1670339 123.39327,89.124664 123.39327,89.124664 0,311.06297 0,584.4136 c 0,0 71.978249,123.39208 261.35281,129.39038 0,0 31.70511,-37.7037 57.41206,-70.26582 C 209.93876,610.97599 168.80785,543.28361 168.80785,543.28361 c 0,0 8.5708,5.99726 23.99498,14.56626 0.85689,0 1.71122,0.85558 3.42502,1.7125 2.57069,1.71377 5.1422,2.57081 7.7129,4.28459 21.42246,11.99658 42.84423,21.42368 62.5529,29.13581 35.13283,14.56729 77.12215,27.41951 125.96536,36.84541 64.26736,11.9966 139.67306,16.28044 221.93532,0.85625 40.27424,-7.71208 81.40794,-18.85053 124.25286,-36.84541 29.99142,-11.13969 63.40925,-27.41914 98.54205,-50.55541 0,0 -42.84417,69.40888 -155.09786,101.11413 25.70697,31.70521 56.55581,68.54998 56.55581,68.54998 C 928.02173,706.94949 1000,583.55668 1000,584.4136 1000,311.06297 876.60671,89.124664 876.60671,89.124664 754.07028,-2.5634661 636.67349,0.00803389 636.67349,0.00803389 L 624.67932,13.718014 C 770.35209,57.419834 838.04548,121.6888 838.04548,121.6888 748.92802,73.702484 661.52634,49.707644 580.121,40.281764 c -61.69669,-6.85519 -120.82499,-5.13937 -173.09576,1.71581 -5.14137,0 -9.42484,0.85563 -14.56623,1.7125 -29.99144,3.42762 -102.82721,13.70953 -194.51535,53.98375 -31.70523,13.710366 -50.55871,23.994976 -50.55871,23.994976 0,0 70.26568,-67.697276 224.50739,-111.399106 L 363.32318,0.00803389 c 0,0 -0.4538,-0.0102 -1.33748,-0.007 z M 340.18778,316.20414 c 48.8432,0 88.26098,41.98669 87.40413,94.25746 0,52.27084 -38.56093,94.2608 -87.40413,94.2608 -47.98632,0 -87.40413,-41.98996 -87.40413,-94.2608 0,-52.27077 38.56091,-94.25746 87.40413,-94.25746 z m 312.76778,0 c 47.98631,0 87.40413,41.98669 87.40413,94.25746 0,52.27084 -38.56089,94.2608 -87.40413,94.2608 -47.9863,0 -87.40413,-41.98996 -87.40413,-94.2608 0,-52.27077 38.56091,-94.25746 87.40413,-94.25746 z"
     id="path8"
     inkscape:connector-curvature="0" />
</svg>
