<?xml version="1.0" encoding="utf-8"?>
<!-- Svg Vector Icons : http://www.onlinewebfonts.com/icon -->
<!DOCTYPE svg PUBLIC "-//W3C//DTD SVG 1.1//EN" "http://www.w3.org/Graphics/SVG/1.1/DTD/svg11.dtd">
<svg version="1.1" xmlns="http://www.w3.org/2000/svg" xmlns:xlink="http://www.w3.org/1999/xlink" x="0px" y="0px" viewBox="0 0 1000 1000" enable-background="new 0 0 1000 1000" xml:space="preserve">
<metadata> Svg Vector Icons : http://www.onlinewebfonts.com/icon </metadata>
<g><g><path d="M974.8,254c-8.2-11-19.8-19.4-34.7-25.3c0.8,13.7-0.2,24.9-2.9,33.6L760.6,843.1c-3.1,10.2-10,18.3-20.6,24.4c-10.6,6.1-21.6,9.1-33,9.1H163.9c-47.1,0-75.3-13.7-84.7-41.2c-3.9-10.6-3.7-19,0.6-25.3c4.3-5.9,11.8-8.8,22.4-8.8h511.4c36.5,0,61.7-6.8,75.6-20.3c13.9-13.5,28-43.7,42.1-90.3l161.2-533.2c8.6-29,5.1-54.5-10.6-76.5c-15.7-22-38.1-33-67.1-33H366.9c-5.1,0-15.1,1.8-30,5.3l0.6-1.8c-11-2.3-20.3-3.4-28-3.2c-7.6,0.2-14.7,2.5-21.2,6.8c-6.5,4.3-11.7,8.9-15.6,13.8c-3.9,4.9-7.8,11.2-11.5,18.8c-3.7,7.7-6.9,14.7-9.4,21.2c-2.5,6.5-5.5,13.3-8.8,20.6c-3.3,7.3-6.6,13.2-9.7,17.9c-2.4,3.1-5.7,7.3-10,12.4c-4.3,5.1-7.8,9.6-10.6,13.5c-2.7,3.9-4.5,7.5-5.3,10.6c-0.8,3.5-0.4,8.7,1.2,15.6c1.6,6.9,2.2,11.9,1.8,15c-1.6,14.9-7,33.8-16.2,56.8c-9.2,23-17.6,39.5-25,49.7c-1.6,2-5.9,6.4-12.9,13.2c-7.1,6.9-11.4,12.8-12.9,17.9c-1.6,2-1.7,7.5-0.3,16.5c1.4,9,1.9,15.3,1.5,18.8c-1.6,13.3-6.5,31-14.7,53c-8.2,22-16.5,40-24.7,54.1c-1.2,2.4-4.5,6.9-10,13.5c-5.5,6.7-8.8,12.2-10,16.5c-0.8,3.1-0.7,8.6,0.3,16.5c1,7.8,0.9,13.7-0.3,17.6c-3.1,14.9-9,32.9-17.7,53.8c-8.6,21-17.5,38.9-26.5,53.8c-2.3,3.9-5.6,8.5-9.7,13.8c-4.1,5.3-7.4,9.9-9.7,13.8c-2.4,3.9-3.9,8-4.7,12.4c-0.4,2.4,0.2,6.2,1.8,11.5c1.6,5.3,2.2,9.5,1.8,12.7c-0.4,5.5-1.2,12.8-2.4,21.8c-1.2,9-1.8,14.3-1.8,15.9c-8.6,23.5-8.2,48.5,1.2,74.8c11,30.6,30.5,56.4,58.5,77.4c28.1,21,57.2,31.5,87.4,31.5h543.2c25.5,0,49.5-8.5,72.1-25.6c22.6-17.1,37.6-38.1,45-63.3l161.8-533.2C994,301.7,990.5,276.4,974.8,254z M348.7,255.2l12.4-37.7c1.6-5.1,4.8-9.5,9.7-13.2c4.9-3.7,9.9-5.6,15-5.6h357.8c5.5,0,9.4,1.9,11.8,5.6c2.4,3.7,2.8,8.1,1.2,13.2l-12.4,37.7c-1.6,5.1-4.8,9.5-9.7,13.2c-4.9,3.7-9.9,5.6-15,5.6H361.6c-5.5,0-9.4-1.9-11.8-5.6C347.5,264.7,347.1,260.3,348.7,255.2z M299.8,405.8l12.4-37.7c1.6-5.1,4.8-9.5,9.7-13.2c4.9-3.7,9.9-5.6,15-5.6h357.8c5.5,0,9.4,1.9,11.8,5.6c2.4,3.7,2.7,8.1,1.2,13.2l-12.4,37.7c-1.6,5.1-4.8,9.5-9.7,13.2c-4.9,3.7-9.9,5.6-15,5.6H312.8c-5.5,0-9.4-1.9-11.8-5.6C298.7,415.4,298.3,410.9,299.8,405.8z"/></g><g></g><g></g><g></g><g></g><g></g><g></g><g></g><g></g><g></g><g></g><g></g><g></g><g></g><g></g><g></g></g>
</svg>