<?xml version="1.0" encoding="utf-8"?>
<!-- Svg Vector Icons : http://www.onlinewebfonts.com/icon -->
<!DOCTYPE svg PUBLIC "-//W3C//DTD SVG 1.1//EN" "http://www.w3.org/Graphics/SVG/1.1/DTD/svg11.dtd">
<svg version="1.1" xmlns="http://www.w3.org/2000/svg" xmlns:xlink="http://www.w3.org/1999/xlink" x="0px" y="0px" viewBox="0 0 1000 1000" enable-background="new 0 0 1000 1000" xml:space="preserve">
<metadata> Svg Vector Icons : http://www.onlinewebfonts.com/icon </metadata>
<g><path d="M699.2,639c-27.8-23.6-58.8-42-92.1-54.6c-6.4-2.4-12.9-4.7-19.5-6.6c20.5-10.5,39.4-24.7,55.9-42.4c38.3-40.9,59.3-95.4,59.3-153.2c0-57.9-21.1-112.3-59.3-153.2c-38.3-40.9-89.1-63.5-143.2-63.5c-54.1,0-105,22.5-143.2,63.5c-38.3,40.9-59.3,95.3-59.3,153.2c0,57.9,21.1,112.3,59.3,153.2c16.4,17.5,35.1,31.7,55.3,42.1c-6.9,2.1-13.8,4.4-20.6,7c-33.4,12.7-64.4,31.1-92.2,54.8c-27.6,23.4-51.2,51.3-70.3,82.9c-19.4,32.1-33.6,67.2-42.1,104.3l31.3,8.2c15.2-66,51.1-125.8,101.2-168.4c25-21.3,52.9-37.9,82.9-49.3c31-11.8,63.6-17.8,96.9-17.8c33.2,0,65.8,6,96.8,17.7c30,11.4,57.8,27.9,82.9,49.1c50,42.5,86,102.2,101.2,168.1l31.3-8.3c-8.5-37-22.7-72-42.2-104.1C750.4,690.2,726.8,662.4,699.2,639z M330.1,382.1c0-100.4,76.4-182.2,170.3-182.2c93.9,0,170.3,81.7,170.3,182.2c0,100.5-76.4,182.2-170.3,182.2C406.4,564.3,330.1,482.5,330.1,382.1z M961.1,684.1c-13.1-21.6-29.3-40.7-48.2-56.8c-19.1-16.2-40.3-28.8-63.2-37.5c-4.4-1.7-8.9-3.2-13.3-4.6c14-7.2,27-17,38.3-29.1c26.3-28.1,40.7-65.4,40.7-105.1c0-39.7-14.5-77-40.7-105.1c-26.2-28.1-61.1-43.5-98.3-43.5c-23.8,0-46.7,6.4-67,18.4c3.7,6.9,6.5,14.4,8.4,22.3c17.2-10.7,37.2-16.9,58.6-16.9c64.4,0,116.8,56.1,116.8,125c0,68.9-52.4,125-116.8,125c-7.1,0-14-0.7-20.8-2c0,0.4,0,0.9,0,1.3c0,9.1-1.4,17.9-3.9,26.2c8-1,16-1.6,24.1-1.6c22.8,0,45.1,4.1,66.4,12.2c20.6,7.8,39.7,19.1,56.8,33.7c34.3,29.1,59,70.1,69.4,115.3l21.5-5.7C984.1,730.1,974.4,706.1,961.1,684.1z M248.3,601.6c-2.5-8.3-3.9-17.1-3.9-26.2c0-0.4,0-0.9,0-1.3c-6.8,1.3-13.7,2-20.8,2c-64.4,0-116.8-56.1-116.8-125c0-68.9,52.4-125,116.8-125c21.3,0,41.4,6.2,58.6,16.9c1.8-7.9,4.7-15.3,8.4-22.3c-20.3-12-43.2-18.4-67-18.4c-37.1,0-72,15.5-98.3,43.5C99.1,374,84.7,411.4,84.7,451.1c0,39.7,14.5,77,40.7,105.1c11.3,12.1,24.3,21.9,38.3,29.1c-4.5,1.4-8.9,2.9-13.3,4.6c-22.9,8.7-44.1,21.3-63.2,37.5c-18.9,16-35.1,35.1-48.2,56.8c-13.3,22-23.1,46-28.9,71.4l21.5,5.7C41.9,716,66.6,675,100.9,645.9c17.2-14.6,36.3-25.9,56.8-33.7c21.3-8.1,43.6-12.2,66.4-12.2C232.3,600,240.3,600.5,248.3,601.6z"/></g>
</svg>