<?xml version="1.0" encoding="utf-8"?>
<!-- Svg Vector Icons : http://www.onlinewebfonts.com/icon -->
<!DOCTYPE svg PUBLIC "-//W3C//DTD SVG 1.1//EN" "http://www.w3.org/Graphics/SVG/1.1/DTD/svg11.dtd">
<svg version="1.1" xmlns="http://www.w3.org/2000/svg" xmlns:xlink="http://www.w3.org/1999/xlink" x="0px" y="0px" viewBox="0 0 1000 1000" enable-background="new 0 0 1000 1000" xml:space="preserve">
<metadata> Svg Vector Icons : http://www.onlinewebfonts.com/icon </metadata>
<g><path d="M255.1,306l265.2,649.8c11.5,28.1,43.7,41.7,71.9,30.2l316-129c28.1-11.5,41.7-43.7,30.2-71.9L673.2,135.4c-11.5-28.1-43.7-41.7-71.9-30.2l-316,129C257.2,245.6,243.7,277.8,255.1,306z M609.5,125.1c17.1-7,36.8,1.3,43.8,18.4l265.2,649.8c7,17.1-1.2,36.8-18.4,43.7L584,966c-17.1,7-36.7-1.3-43.8-18.4L275.1,297.8c-7-17.1,1.2-36.7,18.4-43.7L609.5,125.1z"/><path d="M358,122.1c2.6-2.7,4.1-6.2,4-9.9c0-1.7-0.3-3.3-0.9-4.8c-2-5.5-7.4-9.1-13.2-9.1c-112.1,0.6-202.9,92.2-202.3,204.3c0,7.5,6.6,14,14.1,14c3.7,0,7.2-1.5,9.9-4.2c2.6-2.7,4.1-6.2,4.1-9.9c-0.5-96.7,77.7-175.7,174.4-176.2C351.9,126.3,355.4,124.8,358,122.1z"/><path d="M366.9,38c7.7,0,14-6.3,14-14.1c0-1.6-0.3-3.3-0.9-4.8c-2-5.5-7.3-9.1-13.2-9.1C195.4,10.8,56.7,150.9,57.6,322.3c0,7.6,6.6,14,14.1,13.9c3.7,0,7.2-1.5,9.9-4.2c2.6-2.7,4.1-6.2,4.1-9.9C84.9,166.3,211,38.8,366.9,38z"/></g>
</svg>