<?xml version="1.0" encoding="utf-8"?>
<!-- Svg Vector Icons : http://www.onlinewebfonts.com/icon -->
<!DOCTYPE svg PUBLIC "-//W3C//DTD SVG 1.1//EN" "http://www.w3.org/Graphics/SVG/1.1/DTD/svg11.dtd">
<svg version="1.1" xmlns="http://www.w3.org/2000/svg" xmlns:xlink="http://www.w3.org/1999/xlink" x="0px" y="0px" viewBox="0 0 1000 1000" enable-background="new 0 0 1000 1000" xml:space="preserve">
<metadata> Svg Vector Icons : http://www.onlinewebfonts.com/icon </metadata>
<g><g transform="translate(0.000000,512.000000) scale(0.100000,-0.100000)"><path d="M1322.9,4995.1c-183.6-44-348-179.7-432.2-359.5L841,4528.6V111.4v-4417.2l45.9-86.1c70.8-133.8,116.6-187.4,219.9-258.1c80.3-53.5,273.4-124.3,340.4-124.3c7.6,0,15.3,227.6,15.3,506.7c0,531.6,9.6,598.5,86,629.1c17.2,5.7,168.3,11.5,336.5,11.5c298.3,0,306-1.9,351.8-47.8l47.8-45.9v-527.8v-525.8h315.5h315.5v1090c0,1049.8,1.9,1093.8,38.2,1166.4c21,40.2,65,93.7,99.4,118.6l63.1,44l1778.3,5.7c979,1.9,1797.5,0,1822.3-5.7c70.8-17.2,193.1-141.5,214.2-216.1c11.5-44,19.1-474.2,19.1-1135.9v-1067h363.3h363.3v531.6c0,673.1-38.2,615.7,403.5,615.7c436,0,399.6,57.4,399.6-621.5V-4780l109,13.4c221.8,26.8,399.6,145.3,504.8,340.4l65,120.5V121v4426.7l-53.5,101.3c-107.1,202.7-292.6,332.7-510.6,359.5l-105.2,11.5v-468.5V4083l-45.9-49.7c-45.9-49.7-47.8-49.7-359.5-49.7c-307.9,0-313.6,0-359.5,47.8l-47.8,45.9v470.4v468.5h-367.1h-369.1l5.7-1046c3.8-923.6,1.9-1057.4-24.9-1128.2c-36.3-95.6-116.6-168.3-216.1-197c-99.4-26.8-3447.7-26.8-3547.1,1.9c-97.5,26.8-198.9,120.5-223.7,204.6c-13.4,47.8-19.1,418.8-15.3,1118.6l5.7,1046h-319.3h-321.2v-468.5v-470.4l-47.8-45.9c-45.9-47.8-51.6-47.8-359.5-47.8c-286.8,0-315.5,3.8-353.8,38.2c-22.9,21-45.9,59.3-51.6,82.2c-5.7,22.9-9.6,237.1-5.7,478C1472,5071.6,1485.4,5033.4,1322.9,4995.1z M2235,3343l49.7-45.9v-487.6v-485.7l-59.3-49.7c-57.4-49.7-63.1-49.7-351.8-49.7c-283,0-296.4,1.9-348,45.9l-53.5,45.9v491.4V3299l53.5,45.9c51.6,44,65,45.9,355.7,45.9C2175.7,3390.8,2185.2,3388.9,2235,3343z M8436.2,3344.9l53.5-45.9l5.7-449.4c5.7-497.2-5.7-569.8-101.3-606.2c-70.8-26.8-575.6-24.9-627.2,3.8c-86.1,45.9-88,59.3-89.9,566v483.8l47.8,45.9c45.9,45.9,53.5,47.8,351.9,47.8C8373.1,3390.8,8384.6,3388.9,8436.2,3344.9z M6745.8,2025.5c80.3-32.5,158.7-126.2,185.5-218c11.5-45.9,19.1-629.1,19.1-1677c-1.9-1698-1.9-1694.2-89.9-1791.7c-19.1-21-68.8-55.5-110.9-74.6c-72.7-34.4-168.3-36.3-1822.3-36.3c-1439.9,0-1755.4,3.8-1807,26.8c-74.6,30.6-156.8,116.7-183.6,189.3c-15.3,36.3-21,587-21,1711.4v1657.9l44,76.5c24.9,42.1,76.5,93.7,118.6,118.6l76.5,44h1765C6367.2,2052.3,6696.1,2048.4,6745.8,2025.5z M2189.1,1622c30.6-15.3,65-45.9,76.5-65c11.5-22.9,19.1-216.1,19.1-489.5c0-470.4-11.5-543.1-86-571.7c-17.2-5.7-168.3-11.5-336.5-11.5c-298.3,0-306,1.9-351.8,47.8l-47.8,45.9v474.2c0,625.3-19.1,594.7,407.3,596.6C2070.5,1650.7,2147,1643.1,2189.1,1622z M8430.5,1595.3l49.7-45.9v-489.5c0-625.3,34.4-575.6-399.6-575.6c-439.8,0-403.5-51.6-403.5,573.7c0,483.8,0,491.4,44,529.7c65,59.3,78.4,61.2,380.5,57.4C8369.3,1641.1,8384.6,1639.2,8430.5,1595.3z M2210.1-133.4c68.8-51.6,74.6-99.4,74.6-567.9V-1164l-55.5-55.5l-55.4-55.4h-300.2h-300.2l-55.5,55.4l-55.5,55.5v478v476.1l47.8,51.6l45.9,49.7h311.7C2082-110.4,2189.1-116.2,2210.1-133.4z M8432.4-156.3l47.8-45.9v-478.1c0-262-5.7-491.5-11.5-508.7c-26.8-66.9-110.9-86-390.1-86s-363.3,19.1-390.1,86c-5.7,17.2-11.5,246.7-11.5,508.7v478.1l47.8,45.9c45.9,45.9,51.6,47.8,353.8,47.8S8386.5-110.4,8432.4-156.3z M2238.8-1930.8c45.9-53.6,45.9-55.5,45.9-512.5c0-466.6-5.7-514.4-74.6-566c-42.1-32.5-631-32.5-673.1,0c-68.8,51.6-74.6,99.4-74.6,562.2c0,608.1-21,581.3,436,573.7l294.5-3.8L2238.8-1930.8z M8390.3-1890.7c86.1-45.9,88-59.3,89.9-566v-483.8l-47.8-45.9c-45.9-45.9-51.6-47.8-353.8-47.8s-307.9,1.9-353.8,47.8l-47.8,45.9v483.8c1.9,502.9,3.8,518.2,86.1,566C7814.8-1860.1,8334.9-1860.1,8390.3-1890.7z"/></g></g>
</svg>