<?xml version="1.0" encoding="utf-8"?>
<!-- Svg Vector Icons : http://www.onlinewebfonts.com/icon -->
<!DOCTYPE svg PUBLIC "-//W3C//DTD SVG 1.1//EN" "http://www.w3.org/Graphics/SVG/1.1/DTD/svg11.dtd">
<svg version="1.1" xmlns="http://www.w3.org/2000/svg" xmlns:xlink="http://www.w3.org/1999/xlink" x="0px" y="0px" viewBox="0 0 1000 1000" enable-background="new 0 0 1000 1000" xml:space="preserve">
<metadata> Svg Vector Icons : http://www.onlinewebfonts.com/icon </metadata>
<g><path d="M856.9,445.4c-5-0.7-9.5-4.3-13.4-10.7c-3.9-6.4-7-18.2-9.1-35.4c-3.6-27.9-12.7-48.5-27.4-61.7c-14.7-13.2-37.4-22.7-68.2-28.4c-32.2-6.4-60.6-19.5-85.3-39.2c-24.7-19.7-45.3-38.1-61.7-55.3c-15.7-15-27.9-20.4-36.5-16.1c-8.6,4.3-12.9,12.2-12.9,23.6v46.2v100.9c0,40.1-0.2,83.4-0.5,129.9c-0.4,46.5-0.5,90.5-0.5,132v109.5v61.2c0.7,17.2-2,36.3-8,57.4c-6.1,21.1-17.5,41-34.4,59.6c-16.8,18.6-39.2,34.5-67.1,47.8c-27.9,13.2-62.6,20.9-104.1,23.1c-42.2,2.1-80.3-5.4-114.3-22.5c-34-17.2-60.3-38.8-78.9-64.9c-18.6-26.1-27.7-54.7-27.4-85.9s13.8-60.3,40.3-87.5c26.5-27.2,55.1-46.2,85.9-56.9c30.8-10.7,60.5-16.6,89.1-17.7s54.2,0.9,76.8,5.9c22.5,5,39.2,9.7,49.9,14V370.3c0-84.4,0.4-179.6,1.1-285.5c0-20.8,5.4-37.7,16.1-51c10.7-13.2,25-20.9,42.9-23.1c15-2.1,27.4,0.9,37,9.1c9.7,8.2,19.5,19.7,29.5,34.3c10,14.7,22.4,31.3,37,49.9c14.7,18.6,34.5,36.9,59.6,54.7c21.5,16.5,40.3,28.3,56.4,35.4c16.1,7.2,31.1,13.8,45.1,19.9c14,6.1,27.7,13.4,41.3,22c13.6,8.6,28.6,22.5,45.1,41.9c16.5,18.6,26.5,37.9,30.1,58c3.6,20,3.8,38.3,0.5,54.7c-3.2,16.5-8.4,29.9-15.6,40.3C867.9,441.3,861.9,446.1,856.9,445.4L856.9,445.4z"/></g>
</svg>