<?xml version="1.0" encoding="utf-8"?>
<!-- Svg Vector Icons : http://www.onlinewebfonts.com/icon -->
<!DOCTYPE svg PUBLIC "-//W3C//DTD SVG 1.1//EN" "http://www.w3.org/Graphics/SVG/1.1/DTD/svg11.dtd">
<svg version="1.1" xmlns="http://www.w3.org/2000/svg" xmlns:xlink="http://www.w3.org/1999/xlink" x="0px" y="0px" viewBox="0 0 1000 1000" enable-background="new 0 0 1000 1000" xml:space="preserve">
<metadata> Svg Vector Icons : http://www.onlinewebfonts.com/icon </metadata>
<g><g transform="translate(0.000000,511.000000) scale(0.100000,-0.100000)"><path d="M313.3,2985c-99.7-35.9-133.6-67.8-175.5-161.5C102,2747.7,100,2632.1,100,640.2v-2105.6l43.9-87.7c27.9-51.9,73.8-105.7,115.6-129.6c67.8-37.9,107.7-39.9,1212.3-45.9l1140.5-6v-376.8v-378.8H2377c-221.3,0-239.3-2-279.1-45.9c-55.8-59.8-57.8-159.5-4-213.3c39.9-39.9,65.8-39.9,1282.1-39.9c1160.5,0,1246.2,2,1274.1,35.9c47.9,51.9,59.8,117.7,33.9,167.5c-45.9,85.7-77.8,93.7-321,95.7h-235.3v378.8v378.8H5340h1212.3l87.7,43.9c47.9,25.9,105.7,71.8,127.6,101.7c41.9,55.8,41.9,67.8,41.9,2227.2v2171.3l-41.9,55.8c-23.9,29.9-71.8,73.8-109.7,95.7c-67.8,39.9-107.7,39.9-3168.3,43.9C931.5,3010.9,375.2,3006.9,313.3,2985z M6520.4,640.2v-2053.7H3469.7H419V640.2v2053.7h3050.7h3050.7V640.2z M3828.6-2111.4v-378.8H3370h-458.6v378.8v378.8H3370h458.6V-2111.4z"/><path d="M7282,2979c-35.9-15.9-85.7-59.8-109.7-93.7l-43.9-61.8l-6-2671.8c-4-2574.1-4-2673.8,31.9-2741.6c22-39.9,73.8-87.7,123.6-113.7l85.7-45.8h1146.5c1274.1,0,1228.3-4,1335.9,135.6l53.8,69.8V133.7c0,2671.8,0,2677.8-41.9,2731.6c-21.9,29.9-65.8,73.8-95.7,95.7c-53.8,41.9-77.7,41.9-1234.2,45.9C7471.4,3012.9,7341.8,3008.9,7282,2979z M9590.9,2255.2v-458.6H8504.3H7417.6v458.6v458.6h1086.7h1086.7V2255.2z M9590.9,1387.9v-209.4H8504.3H7417.6v209.4v209.4h1086.7h1086.7V1387.9z M9590.9-725.6v-1704.8H8504.3H7417.6v1704.8V979.1h1086.7h1086.7V-725.6z"/></g></g>
</svg>