<?xml version="1.0" encoding="utf-8"?>
<!-- Svg Vector Icons : http://www.onlinewebfonts.com/icon -->
<!DOCTYPE svg PUBLIC "-//W3C//DTD SVG 1.1//EN" "http://www.w3.org/Graphics/SVG/1.1/DTD/svg11.dtd">
<svg version="1.1" xmlns="http://www.w3.org/2000/svg" xmlns:xlink="http://www.w3.org/1999/xlink" x="0px" y="0px" viewBox="0 0 1000 1000" enable-background="new 0 0 1000 1000" xml:space="preserve">
<metadata> Svg Vector Icons : http://www.onlinewebfonts.com/icon </metadata>
<g><g transform="translate(0.000000,511.000000) scale(0.100000,-0.100000)"><path d="M1901.7,4223.5l-516.4-420.6l-649.6-806.1c-357.5-444-642.6-813.1-635.6-820.1c7-7,252.4,161.2,546.8,373.9l532.7,385.5l11.7-2633.3c11.7-2535.2,14-2638,56.1-2738.5c144.9-338.8,401.9-558.5,733.7-628.6c119.2-25.7,2411.4-39.7,2411.4-16.3c0,7-32.7,107.5-72.4,224.3c-250,747.7-201,1514.1,140.2,2210.4C4957.9,368.1,5937,980.3,7056.2,980.3c598.2,0,1130.9-156.6,1600.6-469.7l140.2-93.5l11.7,1259.4l11.7,1259.4l532.8-385.5c294.4-212.6,539.7-380.9,546.8-373.9c7,4.7-278.1,373.9-635.6,817.8l-644.9,803.8l-518.7,422.9l-518.7,422.9H5000H2418L1901.7,4223.5z M7577.3,3805.3c137.9-191.6,250-355.2,250-362.2c0-7-1271.1-14-2827.3-14c-1553.8,0-2827.3,7-2827.3,14c0,9.3,112.2,170.6,250,362.2l250,348.1H5000h2324.9L7577.3,3805.3z"/><path d="M6787.5,578.4C5757.1,466.3,4922.9-248.8,4633.1-1267.5c-79.4-273.4-100.5-806.1-44.4-1105.2c102.8-544.4,355.2-997.7,771.1-1388c743.1-694,1859.9-862.2,2782.9-415.9c663.6,322.4,1166,941.6,1350.6,1670.7c42,163.6,49.1,266.4,51.4,595.8c0,362.2-7,418.3-65.4,628.6C9346.1-804.9,9126.4-438,8761.9-92.2c-420.6,399.6-878.5,607.5-1472.1,670.6C7044.5,604.1,7023.5,604.1,6787.5,578.4z M7056.2-552.5v-684.6l105.1-14c212.6-30.4,418.3-186.9,511.7-387.9c95.8-212.6,51.4-539.7-98.1-710.3c-35-39.7-7-72.5,448.6-528.1l486-486l-112.2-98.1c-327.1-287.4-836.5-493-1224.4-493h-116.8v675.3v675.3l-98.1,16.4c-324.8,53.7-579.5,348.2-579.5,663.6c0,144.9,32.7,252.4,119.2,385.5l72.5,114.5l-476.7,476.7l-474.4,476.7l133.2,121.5c296.7,273.4,785.1,472,1194,481.3l109.8,2.3V-552.5z"/><path d="M6916-1587.6c-116.8-42.1-210.3-193.9-210.3-341.1c0-203.3,170.6-355.2,376.2-336.5c341.2,28,446.3,469.7,156.6,647.2C7163.7-1573.6,6997.8-1557.3,6916-1587.6z"/></g></g>
</svg>