<?xml version="1.0" encoding="utf-8"?>
<!-- Svg Vector Icons : http://www.onlinewebfonts.com/icon -->
<!DOCTYPE svg PUBLIC "-//W3C//DTD SVG 1.1//EN" "http://www.w3.org/Graphics/SVG/1.1/DTD/svg11.dtd">
<svg version="1.1" xmlns="http://www.w3.org/2000/svg" xmlns:xlink="http://www.w3.org/1999/xlink" x="0px" y="0px" viewBox="0 0 1000 1000" enable-background="new 0 0 1000 1000" xml:space="preserve">
<metadata> Svg Vector Icons : http://www.onlinewebfonts.com/icon </metadata>
<g><path d="M10,147.2c326.7,0,653.3,0,980,0v627.2c-326.7,0-653.3,0-980,0V147.2L10,147.2z M49.2,186.4c0,182.9,0,365.8,0,548.7c300.5,0,601.1,0,901.6,0c0-182.9,0-365.8,0-548.7C650.3,186.4,349.7,186.4,49.2,186.4z M412.5,335.8c4-0.8,7.9,1.2,11.4,3c66.7,38.6,133.5,77.1,200.2,115.6c4.8,2.8,9.8,5.2,14.1,8.7c5.4,4,6,12.8,1.3,17.6c-4,3.9-9.2,6.2-13.9,9.1c-67.6,39-135.1,78-202.7,117c-4.8,3-11.6,4-16.2-0.1c-4.1-2.9-4.7-8.2-4.7-12.8c0-81,0-162.1,0-243.1C401.4,344.1,405.4,336.8,412.5,335.8z M222.7,814.3c2.5-0.5,5-0.7,7.5-0.7c177.3,0,354.7,0,532.1,0c8.9-0.1,19.8-0.9,26.1,6.6c7.3,7.1,6.8,20.2-0.8,26.9c-4.5,4.8-11.4,5.6-17.6,5.8c-180.6-0.1-361.2,0-541.9,0c-7.1-0.1-14.7-2.8-18.6-9.1C201.7,832.9,209.3,815.6,222.7,814.3z"/></g>
</svg>